<svg width="467" height="467" viewBox="0 0 467 467" fill="none" xmlns="http://www.w3.org/2000/svg">
<g clip-path="url(#clip0)">
<path d="M461.105 272.255C460.991 271.585 460.701 271.001 460.472 270.364C460.189 269.537 459.924 268.735 459.475 268.001C459.361 267.827 459.199 267.69 459.073 267.524C457.395 265.104 454.784 263.56 451.374 263.486C451.153 263.461 451.016 263.34 450.788 263.322C410.26 260.428 368.027 259.396 325.26 259.949C325.141 214.278 324.47 168.551 322.865 123.039C356.289 120.817 389.774 120.919 421.282 128.829C430.18 131.063 437.355 119.82 430.406 113.156C408.274 91.9273 362.412 93.7441 321.872 98.4623C320.633 68.7929 319.132 39.2078 317.166 9.85104C316.287 -3.26121 297.591 -3.30092 296.782 9.85104C294.9 40.3991 294.106 71.1929 293.853 102.086C283.535 103.498 274.216 104.754 266.571 105.39C222.943 109.023 179.34 109.924 135.637 111.726C135.163 88.7752 131.85 67.2168 121.152 54.8169C117.886 51.0319 113.967 51.1361 110.862 53.0969C109.189 39.9449 100.738 28.4286 87.3158 22.7796C71.0291 15.9244 48.4183 27.3787 42.6825 43.998C26.1873 60.5775 26.0235 87.6509 47.6911 100.177C70.2944 113.245 95.2371 90.263 105.5 69C106.885 81.2436 109.475 100.373 110.125 112.709C80.8726 113.664 41.9429 115.002 20.521 129.202C16.5722 131.82 15.8847 138.196 20.521 140.653L24.0305 142.515C25.2566 143.165 26.6217 142.785 27.3787 141.636C31.2232 135.811 85.5784 134.731 110.919 134.399C112.106 182.326 109.333 230.739 108.058 278.956C75.6157 284.456 43.7671 291.004 13.2389 299.055C6.3415 300.872 7.56511 312.629 14.9614 311.78C45.8793 308.231 76.7426 305.59 107.588 303.344C106.918 356.009 109.132 408.297 121.458 459.306C124.726 472.83 144.644 467.008 142.078 453.62C132.55 403.956 131.167 352.817 131.54 301.634C187.235 298.025 242.866 295.794 298.539 293.458C300.765 342.343 303.312 391.092 305.193 439.289C305.627 450.435 322.118 450.453 322.502 439.289C324.158 390.692 325.081 341.564 325.302 292.307C367.083 290.482 408.897 288.435 450.795 285.444C451.026 285.427 451.158 285.307 451.379 285.285C454.791 285.211 457.405 283.667 459.083 281.245C459.209 281.078 459.366 280.947 459.48 280.775C459.934 280.038 460.194 279.234 460.48 278.405C460.706 277.77 460.999 277.184 461.11 276.516C461.232 275.809 461.157 275.107 461.16 274.389C461.148 273.665 461.227 272.965 461.105 272.255ZM90.7458 63.3747C87.1966 77.3159 72.3669 88.8298 58.1228 83.9651C47.5745 80.3638 39.7736 67.1273 42.6825 58.5C43.7076 58.3784 50.1487 34.6478 51 34C59.5032 27.5221 65.8591 38.4384 79.3015 41.4316C89.2815 43.653 93.0491 54.323 90.7458 63.3747ZM131.808 275.166C132.274 245.824 132.962 216.542 132.733 187.605C132.627 174.21 134.563 154.406 135.367 133.768C170.69 132.346 206.078 133.212 241.364 130.375C258.413 129.005 275.983 127.102 293.719 125.409C293.823 170.328 295.322 215.45 297.186 260.51C241.88 262.24 186.096 267.043 131.808 275.166Z" fill="#F1F1F1"/>
<path d="M267.306 227.396C265.097 220.58 261.235 218.54 255.72 214.549C250.041 210.439 244.941 205.289 239.855 200.352C243.933 195.986 248.008 191.623 252.151 187.322C256.755 182.542 262.664 178.173 264.695 171.666C267.02 164.205 259.264 156.076 251.667 158.638C241.166 162.18 231.828 175.719 224.318 185.388C216.043 177.439 207.341 169.665 197.485 164.669C189.967 160.859 181.439 170.576 188.153 176.764C196.306 184.276 204.182 191.966 211.958 199.774C204.462 208.257 196.885 217.453 193.415 227.386C190.347 236.167 202.412 242.372 208.543 236.192C215.038 229.644 220.94 222.365 226.897 215.157C235.497 224.693 247.629 241.59 261.197 238.153C265.663 237.021 268.753 231.866 267.306 227.396Z" fill="#FF3366"/>
<path d="M429.726 343.673C430.902 343.311 432.046 342.81 432.945 341.958C436.574 338.506 439.378 336.421 440.85 331.455C443.379 322.929 435.176 316.002 427.149 317.754C417.974 319.757 414.315 327.848 409.145 335.056C404.573 341.427 400.237 347.96 395.829 354.443C383.655 345.696 371.007 337.255 357.307 331.536C348.161 327.717 343.105 342.055 350.814 346.937C362.499 354.333 373.646 362.489 384.623 370.878C373.497 387.626 360.327 407.083 357.585 426.961C356.374 435.73 369.277 443.602 373.492 433.667C380.429 417.306 389.091 402.28 398.843 387.43C399.58 386.311 400.414 385.254 401.163 384.144C409.982 392.268 419.537 402.173 430.647 403.146C434.844 403.514 439.743 398.969 439.167 394.628C437.499 382.114 424.221 374.07 413.32 366.909C415.171 364.358 416.904 361.722 418.77 359.183C420.868 356.311 426.191 348.625 429.726 343.673Z" fill="#FF3366"/>
<path d="M271.396 355.152C262.667 337.615 232.573 320.169 215.909 338C195.361 343.681 186.232 368.823 191.387 388.463C198.309 414.834 226.475 423.516 249.902 413.824C273.108 404.218 282.572 377.612 271.396 355.152ZM243.543 392.042C231.826 399.078 217.018 396.058 212.124 382.747C207.954 371.412 211.965 363.365 218.22 355.763C219.093 355.999 220.031 356.15 221.084 356.13C233.265 355.902 241.719 350.365 249.718 363.05C256.171 373.298 253.982 385.772 243.543 392.042Z" fill="#96A13A"/>
<path d="M48.726 349.916C41.2702 348.63 36.3087 354.314 35.512 360.087C34.2536 358.955 32.5734 358.238 30.7466 358.679C10.8437 363.499 3.7552 389.349 6.32901 407.123C9.22795 427.152 23.8567 442.957 44.9162 442.285C98.425 440.572 97.4223 358.305 48.726 349.916ZM42.3548 421.545C31.1413 422.012 25.8472 408.676 24.9612 399.525C23.6631 386.113 29.9301 377.133 36.5917 366.396C37.8029 368.421 39.8331 370.039 43.02 370.623C69.5125 375.47 73.3993 420.255 42.3548 421.545Z" fill="#96A13A"/>
<path d="M75 15.6575C67.0116 14.4771 57.8212 18.3567 56.9676 23.6575C55.6193 22.6183 54.9572 24.2517 53 24.6573C31.6754 29.083 21.7856 54.0336 24.5432 70.3529C27.6493 88.7438 42.4362 104.775 65 104.158C122.331 102.585 127.175 23.3603 75 15.6575ZM63.1424 83.5958C51.1278 84.0242 45.4556 71.7795 44.5063 63.3772C43.1155 51.0619 49.8301 42.8168 56.9676 32.9581C58.2653 34.8177 60.4406 36.3036 63.8551 36.8392C92.24 41.2899 96.4044 82.4108 63.1424 83.5958Z" fill="#96A13A"/>
</g>
<defs>
<clipPath id="clip0">
<rect width="467" height="467" fill="white"/>
</clipPath>
</defs>
</svg>
